<svg xmlns="http://www.w3.org/2000/svg"  viewBox="0 0 64 64" width="64px" height="64px"><path d="M 13 6 C 9.141 6 6 9.141 6 13 L 6 51 C 6 54.859 9.141 58 13 58 L 51 58 C 54.859 58 58 54.859 58 51 L 58 13 C 58 9.141 54.859 6 51 6 L 13 6 z M 13 8 L 51 8 C 53.757 8 56 10.243 56 13 L 56 51 C 56 53.757 53.757 56 51 56 L 13 56 C 10.243 56 8 53.757 8 51 L 8 13 C 8 10.243 10.243 8 13 8 z M 40.802734 12.501953 A 1.0001 1.0001 0 0 0 40.261719 12.654297 L 38.552734 13.695312 A 1.0005429 1.0005429 0 1 0 39.59375 15.404297 L 41.302734 14.363281 A 1.0001 1.0001 0 0 0 40.802734 12.501953 z M 31.296875 13.492188 C 29.693875 13.492188 28.144859 14.375828 27.255859 15.798828 L 27.234375 15.832031 L 27.214844 15.867188 C 25.542844 18.793188 26.464516 23.542344 27.978516 27.277344 C 27.031516 29.953344 26.105437 32.530203 23.898438 36.783203 C 14.908437 40.636203 14.27675 43.724547 14.09375 44.810547 C 13.77575 46.337547 14.259734 47.876969 15.427734 49.042969 L 15.478516 49.09375 L 15.533203 49.142578 C 16.555203 50.023578 17.885297 50.507813 19.279297 50.507812 C 22.832297 50.507812 26.311359 47.480188 30.193359 40.992188 C 31.987359 40.413187 34.364781 39.719656 36.800781 39.222656 C 40.576781 42.232656 43.986234 42.888672 46.240234 42.888672 C 49.982234 42.888672 51.221469 40.829781 51.605469 39.800781 C 52.346469 38.194781 52.033438 36.322813 50.773438 34.882812 L 50.742188 34.847656 L 50.708984 34.8125 C 49.178984 33.2235 46.658859 32.451172 43.005859 32.451172 C 41.395859 32.451172 39.889281 32.605516 38.863281 32.728516 C 37.405281 31.179516 36.285906 29.486828 35.628906 28.423828 C 36.479906 25.668828 36.918859 23.172625 37.005859 20.640625 L 37.007812 20.607422 L 37.007812 20.572266 C 37.007812 16.336266 34.712875 13.492188 31.296875 13.492188 z M 31.296875 15.492188 C 34.030875 15.492188 35.007813 18.130266 35.007812 20.572266 C 34.909813 23.404266 34.324312 26.042687 33.445312 28.679688 C 34.030313 29.656688 35.691813 32.488031 38.132812 34.832031 C 38.917812 34.740031 40.882859 34.451172 43.005859 34.451172 C 45.370859 34.451172 47.930531 34.810219 49.269531 36.199219 C 49.953531 36.981219 50.245812 38.05525 49.757812 39.03125 C 49.464813 39.91025 48.586187 40.888672 46.242188 40.888672 C 44.483187 40.888672 41.162516 40.399125 37.353516 37.078125 C 34.129516 37.663125 30.905516 38.641172 28.853516 39.326172 C 26.410516 43.525172 22.89525 48.507813 19.28125 48.507812 C 18.40225 48.507812 17.524797 48.214953 16.841797 47.626953 C 16.157797 46.943953 15.863594 46.063594 16.058594 45.183594 C 16.546594 42.254594 22.504891 39.519656 25.337891 38.347656 C 28.071891 33.170656 29.048047 30.240891 30.123047 27.212891 C 28.267047 23.013891 27.779172 18.910375 28.951172 16.859375 C 29.439172 16.079375 30.319875 15.492188 31.296875 15.492188 z M 31.296875 17.251953 C 31.002875 17.251953 30.708672 17.445281 30.513672 17.738281 C 30.025672 18.617281 29.734219 21.351719 31.199219 25.261719 C 31.883219 23.307719 32.273094 21.257078 32.371094 19.205078 C 32.371094 18.326078 32.176875 17.251953 31.296875 17.251953 z M 42.570312 17.642578 A 1.0001 1.0001 0 0 0 42.400391 17.652344 L 40.416016 17.902344 A 1.000153 1.000153 0 1 0 40.667969 19.886719 L 42.652344 19.636719 A 1.0001 1.0001 0 0 0 42.570312 17.642578 z M 40.433594 22.662109 A 1.0001 1.0001 0 0 0 40.333984 22.664062 A 1.0001 1.0001 0 0 0 40.269531 24.654297 L 42.251953 24.919922 A 1.0001 1.0001 0 1 0 42.515625 22.9375 L 40.533203 22.671875 A 1.0001 1.0001 0 0 0 40.433594 22.662109 z M 20.681641 31.115234 A 1.0001 1.0001 0 0 0 19.734375 32.486328 L 20.449219 34.353516 A 1.0001 1.0001 0 1 0 22.316406 33.638672 L 21.601562 31.771484 A 1.0001 1.0001 0 0 0 20.681641 31.115234 z M 32.566406 31.21875 C 32.175406 32.39075 31.100359 35.1255 30.318359 36.6875 C 32.662359 35.9075 35.691406 35.320656 35.691406 35.222656 C 34.909406 34.440656 33.445406 32.68275 32.566406 31.21875 z M 16.441406 33.205078 A 1.0001 1.0001 0 0 0 15.574219 34.746094 L 16.634766 36.441406 A 1.0001 1.0001 0 1 0 18.330078 35.382812 L 17.269531 33.685547 A 1.0001 1.0001 0 0 0 16.441406 33.205078 z M 43.052734 36.007812 C 41.572734 36.007812 40.119641 36.173828 39.306641 36.298828 C 40.772641 37.470828 42.431109 38.349891 44.287109 38.837891 C 44.603109 38.916891 44.891391 38.951172 45.150391 38.951172 C 46.173391 38.951172 46.748172 38.405375 46.826172 37.859375 C 47.021172 36.882375 46.242938 36.394219 45.460938 36.199219 C 44.722938 36.059219 43.882734 36.007813 43.052734 36.007812 z M 12.751953 36.291016 A 1.0001 1.0001 0 0 0 12.652344 36.292969 A 1.0001 1.0001 0 0 0 12.060547 38.048828 L 13.558594 39.375 A 1.0001 1.0001 0 1 0 14.884766 37.878906 L 13.386719 36.552734 A 1.0001 1.0001 0 0 0 12.751953 36.291016 z M 24.556641 40.595703 C 20.648641 42.352703 18.109406 44.210125 17.816406 45.578125 C 17.718406 45.970125 17.816375 46.262031 18.109375 46.457031 C 18.306375 46.555031 18.500312 46.652344 18.695312 46.652344 C 19.965312 46.652344 22.310641 44.306703 24.556641 40.595703 z M 39.433594 43.291016 A 1.0001 1.0001 0 0 0 38.566406 43.828125 L 37.615234 45.587891 A 1.0001 1.0001 0 1 0 39.373047 46.539062 L 40.326172 44.779297 A 1.0001 1.0001 0 0 0 39.433594 43.291016 z M 43.462891 44.914062 A 1.0001 1.0001 0 0 0 42.548828 45.669922 L 42.03125 47.601562 A 1.0005818 1.0005818 0 0 0 43.964844 48.117188 L 44.480469 46.185547 A 1.0001 1.0001 0 0 0 43.462891 44.914062 z M 47.806641 45.482422 A 1.0001 1.0001 0 0 0 46.824219 46.498047 L 46.830078 48.498047 A 1.0001 1.0001 0 1 0 48.830078 48.494141 L 48.824219 46.494141 A 1.0001 1.0001 0 0 0 47.806641 45.482422 z"/></svg>